<?xml version="1.0" encoding="UTF-8"?>
<svg version="1.1" viewBox="0 0 2048 471" width="825" height="190" xmlns="http://www.w3.org/2000/svg">
<path transform="translate(534,10)" d="m0 0h12l14 4 11 6 10 10 7 12 3 11v12l-5 15-7 11-8 8-11 6-14 3h-9l-8-2-2 5-11 18-14 22-16 24-13 18-11 16-14 19-14 20-10 13-14 19-14 18-14 19-12 16-12 15-7 9-11 13-9 11-7 7-5 2 3 6 2 9v15l-4 12-6 9-5 6-9 6-10 4-7 2h-15l-12-3-9-5-11-10-6-10-4-12v-15l3-14 5-8v-4l-13-15-12-14-14-17-9-10-9-11-13-14-7-8-11-12-7-8-12-13-22-22-7 4-12 3h-11l-13-4-10-6-10-9-6-9-3-6-2-8v-13l4-13 7-11 7-8 8-5 18-5h9l15 3 11 6 10 10 6 10 1 4 11 1 51 11 45 6 59 7 14 1 5-9 8-7 9-4h12l9 3 5 1 13-10 19-14 18-14 13-10 14-11 18-14 13-10 22-18 10-8-3-15v-12l4-12 6-10 9-9 12-7z" fill="#D8B353"/>
<path transform="translate(75,144)" d="m0 0h9l15 3 11 6 10 10 6 10 1 4 11 1 51 11 45 6 59 7 13 2v9l-1 4h-16l-69-8-46-5-38-3-7-2-1 8-6 12-3 4h-2l5 5 12 13 7 8 9 10 7 8 12 14 13 14 7 8 9 10 9 11 9 9 7 8 7 7 7 8 9 10 4 2 7-4 8-2h15l12-36 17-55 10-29 14 3-2 10-24 72-10 32-2 4v3l10 5 7 7 10 18 2 9v15l-4 12-6 9-5 6-9 6-10 4-7 2h-15l-12-3-9-5-11-10-6-10-4-12v-15l3-14 5-8v-4l-13-15-12-14-14-17-9-10-9-11-13-14-7-8-11-12-7-8-12-13-22-22-7 4-12 3h-11l-13-4-10-6-10-9-6-9-3-6-2-8v-13l4-13 7-11 7-8 8-5z" fill="#355574"/>
<path transform="translate(129,199)" d="m0 0 19 2 37 3 35 4 69 8 16 2 3 11 5 8 7 4-12 36-12 40-12 35-3 10-4 1h-12l-10 3-5 3-4-2-8-8-7-8-9-10-16-17-13-15-9-10-11-12-7-8-12-14-11-12-7-8-11-12-5-6-3-2v-2l5-5 5-11z" fill="#000000"/>
<path transform="translate(502,92)" d="m0 0 3 1 4 5 8 4-2 5-13 21-28 42-13 19-12 17-14 19-16 21-20 26-6 8-10 13-8 10-11 14-13 15-12 14-20 20-8 10-4-2-9-6-4-2 1-5 10-31 24-72 4-13 12-2 10-5 6-5 5-10v-12l-3-10 10-7 16-13 13-10 13-11 10-8 17-14 13-10 18-14 17-12z" fill="#000000"/>
<path transform="translate(1043,103)" d="m0 0h17l14 1v151l-1 15h-25l-5-2-1-10-8 6-14 7-4 1h-17l-11-3-8-4-9-8-7-11-4-9-2-9v-24l4-16 6-12 9-10 11-7 12-4h19l13 4 6 4 4 3v-62z" fill="#365674"/>
<path transform="translate(1876,154)" d="m0 0h12l10 3 8 5 7 7 2 3h2l6-7 9-6 12-4 5-1 15 1 10 4 9 8 5 8 4 14v81h-32l-1-75-4-10-5-4-6-2-10 1-6 4-5 6-2 5-1 16-1 59h-30l-1-12-1-64-5-10-4-3-7-2-9 1-6 4-6 8-1 2-1 10-1 66h-31v-112h30l1 12 7-6 9-6z" fill="#D8B353"/>
<path transform="translate(676,104)" d="m0 0h38l6 16 8 20 16 38 16 40 4 12v2h2l2-10 10-26 19-49 11-28 6-15h34l-3 9-11 26-7 15-22 57-17 40-7 18-1 1h-35l-15-37-14-33-19-44-13-31-8-19z" fill="#365674"/>
<path transform="translate(1556,154)" d="m0 0h12l15 3 9 4 6 4 7 7 5 11 2 7v79l-1 1h-28l-1-1v-10l-9 6-10 5-9 2h-14l-13-4-9-6-6-9-3-7-1-5v-12l4-10 6-8 8-5 16-5 7-1h33l-2-12-4-6-8-4-4-1h-15l-23 6h-3l-3-15v-5l20-6z" fill="#D8B353"/>
<path transform="translate(1430,155)" d="m0 0h20l16 4 9 5 7 6 5 8 3 10v82h-24l-6-1v-9l-11 7-15 5-10 1-16-3-10-6-6-7-4-8-2-7v-9l3-10 7-10 9-6 10-4 10-2 22-1 12 1-1-13-3-5-10-5-4-1h-13l-17 4-6 2h-4l-2-19 10-4 15-4z" fill="#D8B353"/>
<path transform="translate(1736,154)" d="m0 0h12l15 3 14 7 8 9 4 8 2 8v80l-1 1h-25l-3-1v-10l-15 9-10 4-10 1-13-2-10-4-8-7-5-10-3-12 1-10 6-12 9-8 13-5 10-2h34l-1-13-6-7-11-4h-12l-17 4-10 3-4-20 10-4 20-5z" fill="#D8B353"/>
<path transform="translate(880,155)" d="m0 0h23l13 4 9 5 8 7 7 11 4 13v26h-79l5 15 4 6 9 5 10 3h20l17-4 5-2h3v20l-10 4-12 3-8 1h-22l-15-3-14-7-10-9-7-10-5-17v-22l4-16 8-14 8-8 11-7z" fill="#365674"/>
<path transform="translate(1334,105)" d="m0 0h18l16 1v134l-2 18-4 15-6 12-11 12-11 8-10 5-14 4-5 1h-9l-2-9-1-11 8-3 12-5 9-7 4-7 4-11 2-12 1-144z" fill="#D8B353"/>
<path transform="translate(1214,154)" d="m0 0 20 2 12 3 1 23h-3l-15-4-11-1-11 2-11 6-8 9-3 10-1 4v10l3 12 4 8 8 7 13 4h16l13-3 6-1v19l-1 2-13 4-15 2h-12l-13-2-11-4-11-7-6-5-7-10-5-12-2-12v-12l3-14 4-9 7-11 8-7 12-7 12-4z" fill="#365674"/>
<path transform="translate(1636,103)" d="m0 0h32v133l-1 34h-30l-1-1z" fill="#D8B353"/>
<path transform="translate(1100,158)" d="m0 0h31v112h-31l-1-24v-72z" fill="#365674"/>
<path transform="translate(1014,176)" d="m0 0h9l10 4 8 9 1 2v42l-4 8-9 8-7 2h-10l-10-4-7-7-4-10-2-9v-11l2-12 5-10 7-7 8-4z" fill="#000000"/>
<path transform="translate(460,191)" d="m0 0h2l-3 10-4 8-2 8h-2v5l-5 5v2h-2v5l-13 18-14 18-10 14-14 18-14 19-9 12-12 15-7 9-11 13-9 11-7 7-3 2h-3l-8-14 12-14 20-20 9-11 13-15 11-14 12-15 7-9 11-15 11-14 16-21 13-18 11-15z" fill="#D9B453"/>
<path transform="translate(534,10)" d="m0 0h12l14 4 11 6 10 10 7 12 3 11v12l-4-1-1 2-4-10-9-7-4-1-7 2-27 1-6 1-7-1-8 3h-8v-3-3l-2 2-6 4-3-2-1 3-2-4 4-12 6-10 9-9 12-7z" fill="#EBC554"/>
<path transform="translate(329,183)" d="m0 0h12l9 3 4 2 3 5 7 9 3 9v12l-5 10-10 8-10 4h-14l-8-3-9-6-5-9-1-9h-6v-1h6l1-13 6-10 8-7z" fill="#978456"/>
<path transform="translate(127,177)" d="m0 0 11 1 51 11 45 6 59 7 13 2v9l-1 4h-16l-69-8-46-5-38-3-5-1v-3h-2z" fill="#395976"/>
<path transform="translate(455,110)" d="m0 0 4 1h11 3l-1 3h-2l-2 5-28 22-11 9-34 28-12 9-15 12-3 2-4-1-6-8-1-4 10-8 19-14 18-14 16-12 16-13 16-12z" fill="#D8B353"/>
<path transform="translate(1554,349)" d="m0 0 11 1 6 3 8 9 2 6v11l-4 8-4 5-10 5h-14l-9-4-7-8-3-8v-9l5-10 8-6 5-2z" fill="#8A94A0"/>
<path transform="translate(1034,350)" d="m0 0h23l10 3 7 6 4 9v10l-5 10-7 6-5 2-6 1h-20l-1-13z" fill="#8C96A1"/>
<path transform="translate(1609,350)" d="m0 0h23l7 2 6 7v11l-6 7h-2l5 10 5 8v1h-8l-8-9-6-7h-7l-2 16-7 1-1-20v-26z" fill="#8C96A1"/>
<path transform="translate(1444,350)" d="m0 0h8l4 8 7 20 8-21 3-6 5-1 4 9 6 18v3h2l1-8 7-20 4-2h5l-3 11-11 33-2 3-5-1-9-24-2-6-7 20-4 8-2 2-4-1-14-40z" fill="#8B95A0"/>
<path transform="translate(1554,218)" d="m0 0h28v15l-4 9-5 5-7 4-4 1h-11l-8-4-4-5-1-2v-11l6-8z" fill="#000000"/>
<path transform="translate(1438,218)" d="m0 0h21l1 1v16l-4 8-7 6-8 3h-9l-9-3-5-6-2-5 1-9 4-6 5-3z" fill="#000000"/>
<path transform="translate(1740,218)" d="m0 0h21l1 2-1 15-6 10-9 6-11 1-8-2-7-6-1-3v-10l4-7 6-4z" fill="#000000"/>
<path transform="translate(885,175)" d="m0 0h14l8 4 5 6 3 8 1 9-1 1h-48l-1-4 3-11 7-8 6-4z" fill="#000000"/>
<path transform="translate(1253,350)" d="m0 0h7l12 14 9 11 4 5 2-30h6l1 1v45l-5 1-14-14-11-14-1-3h-2v26l-1 4h-7z" fill="#8C96A1"/>
<path transform="translate(1549,357)" d="m0 0h12l6 3 4 5 2 6-1 8-5 7-5 3-9 1-8-3-5-6-2-6 1-8 6-8z" fill="#000000"/>
<path transform="translate(1325,350)" d="m0 0h32l2 1-1 6h-25l1 12 22 1v7h-23l1 11 25 1v7h-34z" fill="#8C96A1"/>
<path transform="translate(972,350)" d="m0 0h33v7h-25l1 12 22 1v6l-1 1h-21l-1 12h12l14 1v6l-34 1z" fill="#8C96A1"/>
<path transform="translate(1109,100)" d="m0 0h12l8 5 3 5v10l-4 6-5 4-6 2-9-1-8-6-2-4v-10l4-6 5-4z" fill="#375775"/>
<path transform="translate(1675,350)" d="m0 0h7l2 19 14-14 5-4 7-1v3l-11 12-4 5h-2l2 4 7 8 10 11 1 3-7 1-8-7-12-12-3-1v9l-1 10h-7l-1-1v-44z" fill="#89949F"/>
<path transform="translate(1748,349)" d="m0 0h12l8 3 2 3-2 4-8-2h-14v8l10 4 11 4 5 4 1 8-4 7-6 4-3 1h-13l-10-3-2-2 1-5 4-1 11 3 9-1 3-4v-3l-20-7-6-6-1-5 3-9 6-4z" fill="#8B95A0"/>
<path transform="translate(1165,349)" d="m0 0 10 1 8 4 1 3-3 3-8-2h-11l-6 4-3 4-1 3v8l4 8 5 3 8 1 9-2 5-1 1 4-6 5-5 2h-13l-10-5-6-9-2-7 1-11 6-9 5-4 5-2z" fill="#8B95A0"/>
<path transform="translate(1042,357)" d="m0 0h11l9 2 5 5 2 3v12l-3 5-7 4-6 1h-10l-1-4z" fill="#000000"/>
<path transform="translate(900,350)" d="m0 0h7l8 16 7 15v2h2l1-5 12-26 5-2h3l-1 6-11 24-7 16-5 1-4-5-13-27-5-14z" fill="#8C96A1"/>
<path transform="translate(1384,350)" d="m0 0h38l-1 6-13 1v35l-1 4h-8v-39h-15l-1-4z" fill="#8C96A1"/>
<path transform="translate(473,180)" d="m0 0h8l-2 5-13 18-10 14-11 15-1-3 5-7h2v-5h2l1-9 4-7 4-10h-2l-2 4v-3l6-9 2 1h3v-2z" fill="#EBC554"/>
<path transform="translate(1106,351)" d="m0 0h8v45h-8z" fill="#8C96A1"/>
<path transform="translate(1617,357)" d="m0 0 16 1 3 2v10l-5 2h-14z" fill="#000000"/>
<path transform="translate(127,177)" d="m0 0 11 1 5 1-1 6 3 3v4l-5 2h-4v2l-7 1z" fill="#8B95A0"/>
<path transform="translate(471,98)" d="m0 0 1 4 2 4 6-2 4 2-5 5-8 6-2-1 3-3-1-1h-12l-2-3z" fill="#EBC554"/>
<path transform="translate(310,376)" d="m0 0 3 1 1 2h4l1-2 3-1v2h2l1 5-4 4 5-2-5 5h-3z" fill="#96865D"/>
</svg>
